<svg id="_x31__px" enable-background="new 0 0 24 24" height="512" viewBox="0 0 24 24" width="512" xmlns="http://www.w3.org/2000/svg"><path d="m10 21c-4.962 0-9-4.038-9-9v-3.5c0-.276.224-.5.5-.5h17c.276 0 .5.224.5.5v3.5c0 4.962-4.038 9-9 9zm-8-12v3c0 4.411 3.589 8 8 8s8-3.589 8-8v-3z"/><path d="m20.5 17h-3.291c-.276 0-.5-.224-.5-.5s.224-.5.5-.5h3.291c1.378 0 2.5-1.122 2.5-2.5s-1.122-2.5-2.5-2.5h-2c-.276 0-.5-.224-.5-.5s.224-.5.5-.5h2c1.93 0 3.5 1.57 3.5 3.5s-1.57 3.5-3.5 3.5z"/><path d="m7.093 6c-.155 0-.308-.072-.406-.207-.162-.224-.111-.536.112-.698.314-.228.474-.513.448-.803-.029-.33-.29-.637-.715-.842-.75-.361-1.215-.964-1.276-1.654-.057-.645.256-1.265.859-1.701.223-.163.536-.112.698.112s.111.536-.112.698c-.315.228-.474.513-.449.803.029.33.29.637.715.842.75.361 1.215.964 1.276 1.654.057.646-.256 1.266-.858 1.702-.088.063-.191.094-.292.094z"/><path d="m11.843 6c-.155 0-.308-.072-.406-.207-.162-.224-.111-.536.112-.698.314-.228.474-.513.448-.803-.029-.33-.29-.637-.715-.842-.75-.361-1.215-.964-1.276-1.654-.057-.646.256-1.266.858-1.702.223-.163.536-.112.698.112s.111.536-.112.698c-.314.228-.474.513-.448.803.029.33.29.637.715.842.75.361 1.215.964 1.276 1.654.057.646-.256 1.266-.858 1.702-.088.064-.191.095-.292.095z"/><path d="m17.5 24h-15c-1.378 0-2.5-1.122-2.5-2.5v-1c0-.276.224-.5.5-.5h19c.276 0 .5.224.5.5v1c0 1.378-1.122 2.5-2.5 2.5zm-16.5-3v.5c0 .827.673 1.5 1.5 1.5h15c.827 0 1.5-.673 1.5-1.5v-.5z"/></svg>